# xmcd CD database file
#
# Track frame offsets:
#	150
#	11985
#	24387
#	36472
#	48612
#	62572
#	74422
#	88425
#	102885
#	114247
#	125797
#	137475
#	151372
#	170000
#	180585
#	191497
#	204337
#	213547
#	225162
#	238072
#
# Disc length: 3321 seconds
#
# Revision: 0
# Processed by: cddbd v1.4PL0 Copyright (c) Steve Scherf et al.
# Submitted via: CDex 1.40Beta9
#
DISCID=1f0cf714
DTITLE=Bill Monroe - Bluegrass Gold
DYEAR=1996
DGENRE=Country
TTITLE0=Rawhide
TTITLE1=Uncle Pen
TTITLE2=Blue Moon of Kentucky
TTITLE3=Footprints in the Snow
TTITLE4=Kentucky Mandolin
TTITLE5=A Voice From On High
TTITLE6=I Haven't Seen Mary in Years
TTITLE7=In the Pines
TTITLE8=Lonesome Road Blues
TTITLE9=Put My Little Shues Away
TTITLE10=Walk Softly On This Heart of Mine
TTITLE11=Kentucky Waltz
TTITLE12=The Old Cross Roads
TTITLE13=Wheel Hoss
TTITLE14=I'm Going Back to Old Kentucky
TTITLE15=Cheyenne
TTITLE16=Rocky Road Blues
TTITLE17=I'm Working on a Building
TTITLE18=You'll Find Her Name Written There
TTITLE19=Pike County Breakdown
EXTD=YEAR: 1996 ID3G: 2
EXTT0=
EXTT1=
EXTT2=
EXTT3=
EXTT4=
EXTT5=
EXTT6=
EXTT7=
EXTT8=
EXTT9=
EXTT10=
EXTT11=
EXTT12=
EXTT13=
EXTT14=
EXTT15=
EXTT16=
EXTT17=
EXTT18=
EXTT19=
PLAYORDER=
